<?xml version="1.0" encoding="UTF-8" standalone="no"?>
<!DOCTYPE svg PUBLIC "-//W3C//DTD SVG 1.1//EN"
 "http://www.w3.org/Graphics/SVG/1.1/DTD/svg11.dtd">
<!-- Generated by graphviz version 2.48.0 (0)
 -->
<!-- Title: G Pages: 1 -->
<svg width="967pt" height="272pt"
 viewBox="0.00 0.00 967.20 271.70" xmlns="http://www.w3.org/2000/svg" xmlns:xlink="http://www.w3.org/1999/xlink">
<g id="graph0" class="graph" transform="scale(1 1) rotate(0) translate(21.6 250.1)">
<title>G</title>
<polygon fill="#111111" stroke="transparent" points="-21.6,21.6 -21.6,-250.1 945.6,-250.1 945.6,21.6 -21.6,21.6"/>
<!-- ../models/index.js -->
<g id="node1" class="node">
<title>../models/index.js</title>
<path fill="none" stroke="#cfffac" d="M798.83,-162C798.83,-162 692.17,-162 692.17,-162 688.33,-162 684.5,-158.17 684.5,-154.33 684.5,-154.33 684.5,-146.67 684.5,-146.67 684.5,-142.83 688.33,-139 692.17,-139 692.17,-139 798.83,-139 798.83,-139 802.67,-139 806.5,-142.83 806.5,-146.67 806.5,-146.67 806.5,-154.33 806.5,-154.33 806.5,-158.17 802.67,-162 798.83,-162"/>
<text text-anchor="middle" x="745.5" y="-146.8" font-family="Arial" font-size="14.00" fill="#cfffac">../models/index.js</text>
</g>
<!-- config.js -->
<g id="node2" class="node">
<title>config.js</title>
<path fill="none" stroke="#cfffac" d="M916.33,-162C916.33,-162 865.67,-162 865.67,-162 861.83,-162 858,-158.17 858,-154.33 858,-154.33 858,-146.67 858,-146.67 858,-142.83 861.83,-139 865.67,-139 865.67,-139 916.33,-139 916.33,-139 920.17,-139 924,-142.83 924,-146.67 924,-146.67 924,-154.33 924,-154.33 924,-158.17 920.17,-162 916.33,-162"/>
<text text-anchor="middle" x="891" y="-146.8" font-family="Arial" font-size="14.00" fill="#cfffac">config.js</text>
</g>
<!-- handlers/v1/transaction.js -->
<g id="node3" class="node">
<title>handlers/v1/transaction.js</title>
<path fill="none" stroke="#c6c5fe" d="M625.33,-142C625.33,-142 470.67,-142 470.67,-142 466.83,-142 463,-138.17 463,-134.33 463,-134.33 463,-126.67 463,-126.67 463,-122.83 466.83,-119 470.67,-119 470.67,-119 625.33,-119 625.33,-119 629.17,-119 633,-122.83 633,-126.67 633,-126.67 633,-134.33 633,-134.33 633,-138.17 629.17,-142 625.33,-142"/>
<text text-anchor="middle" x="548" y="-126.8" font-family="Arial" font-size="14.00" fill="#c6c5fe">handlers/v1/transaction.js</text>
</g>
<!-- handlers/v1/transaction.js&#45;&gt;../models/index.js -->
<g id="edge1" class="edge">
<title>handlers/v1/transaction.js&#45;&gt;../models/index.js</title>
<path fill="none" stroke="#757575" d="M633.04,-139.1C646.82,-140.51 660.96,-141.95 674.35,-143.32"/>
<polygon fill="#757575" stroke="#757575" points="674.12,-146.82 684.42,-144.35 674.83,-139.85 674.12,-146.82"/>
</g>
<!-- handlers/v1/transaction.js&#45;&gt;config.js -->
<g id="edge2" class="edge">
<title>handlers/v1/transaction.js&#45;&gt;config.js</title>
<path fill="none" stroke="#757575" d="M633.08,-124.33C687.29,-121.87 759.14,-121.45 822,-130.5 830.58,-131.74 839.59,-133.81 848.13,-136.16"/>
<polygon fill="#757575" stroke="#757575" points="847.33,-139.57 857.91,-139.01 849.29,-132.85 847.33,-139.57"/>
</g>
<!-- rules/index.js -->
<g id="node4" class="node">
<title>rules/index.js</title>
<path fill="none" stroke="#ff6c60" d="M785.33,-64C785.33,-64 705.67,-64 705.67,-64 701.83,-64 698,-60.17 698,-56.33 698,-56.33 698,-48.67 698,-48.67 698,-44.83 701.83,-41 705.67,-41 705.67,-41 785.33,-41 785.33,-41 789.17,-41 793,-44.83 793,-48.67 793,-48.67 793,-56.33 793,-56.33 793,-60.17 789.17,-64 785.33,-64"/>
<text text-anchor="middle" x="745.5" y="-48.8" font-family="Arial" font-size="14.00" fill="#ff6c60">rules/index.js</text>
</g>
<!-- handlers/v1/transaction.js&#45;&gt;rules/index.js -->
<g id="edge3" class="edge">
<title>handlers/v1/transaction.js&#45;&gt;rules/index.js</title>
<path fill="none" stroke="#757575" d="M602.88,-118.96C613.02,-116.25 623.43,-113.09 633,-109.5 662.39,-98.48 694.09,-81.76 716.15,-69.27"/>
<polygon fill="#757575" stroke="#757575" points="718.05,-72.22 724.98,-64.21 714.57,-66.15 718.05,-72.22"/>
</g>
<!-- utils/exchangeRates.js -->
<g id="node5" class="node">
<title>utils/exchangeRates.js</title>
<path fill="none" stroke="#c6c5fe" d="M814.33,-23C814.33,-23 676.67,-23 676.67,-23 672.83,-23 669,-19.17 669,-15.33 669,-15.33 669,-7.67 669,-7.67 669,-3.83 672.83,0 676.67,0 676.67,0 814.33,0 814.33,0 818.17,0 822,-3.83 822,-7.67 822,-7.67 822,-15.33 822,-15.33 822,-19.17 818.17,-23 814.33,-23"/>
<text text-anchor="middle" x="745.5" y="-7.8" font-family="Arial" font-size="14.00" fill="#c6c5fe">utils/exchangeRates.js</text>
</g>
<!-- handlers/v1/transaction.js&#45;&gt;utils/exchangeRates.js -->
<g id="edge4" class="edge">
<title>handlers/v1/transaction.js&#45;&gt;utils/exchangeRates.js</title>
<path fill="none" stroke="#757575" d="M618.01,-118.87C623.4,-116.33 628.48,-113.24 633,-109.5 662.41,-85.15 639.77,-56.06 669,-31.5 670.36,-30.36 671.77,-29.29 673.23,-28.27"/>
<polygon fill="#757575" stroke="#757575" points="675.21,-31.17 682.08,-23.1 671.68,-25.12 675.21,-31.17"/>
</g>
<!-- rules/index.js&#45;&gt;rules/index.js -->
<g id="edge9" class="edge">
<title>rules/index.js&#45;&gt;rules/index.js</title>
<path fill="none" stroke="#757575" d="M721.99,-64.01C713.19,-72.91 721.03,-82 745.5,-82 760.79,-82 769.59,-78.45 771.89,-73.61"/>
<polygon fill="#757575" stroke="#757575" points="775.23,-72.58 769.01,-64.01 768.53,-74.59 775.23,-72.58"/>
</g>
<!-- utils/exchangeRates.js&#45;&gt;config.js -->
<g id="edge14" class="edge">
<title>utils/exchangeRates.js&#45;&gt;config.js</title>
<path fill="none" stroke="#757575" d="M807.86,-23.13C812.9,-25.43 817.7,-28.19 822,-31.5 854.64,-56.59 874.23,-102.13 883.49,-129.01"/>
<polygon fill="#757575" stroke="#757575" points="880.2,-130.22 886.64,-138.64 886.86,-128.04 880.2,-130.22"/>
</g>
<!-- index.js -->
<g id="node6" class="node">
<title>index.js</title>
<path fill="none" stroke="#c6c5fe" d="M54.33,-181C54.33,-181 7.67,-181 7.67,-181 3.83,-181 0,-177.17 0,-173.33 0,-173.33 0,-165.67 0,-165.67 0,-161.83 3.83,-158 7.67,-158 7.67,-158 54.33,-158 54.33,-158 58.17,-158 62,-161.83 62,-165.67 62,-165.67 62,-173.33 62,-173.33 62,-177.17 58.17,-181 54.33,-181"/>
<text text-anchor="middle" x="31" y="-165.8" font-family="Arial" font-size="14.00" fill="#c6c5fe">index.js</text>
</g>
<!-- index.js&#45;&gt;config.js -->
<g id="edge5" class="edge">
<title>index.js&#45;&gt;config.js</title>
<path fill="none" stroke="#757575" d="M62.33,-180.18C113.39,-197.19 220.03,-228.5 313,-228.5 313,-228.5 313,-228.5 549,-228.5 671.69,-228.5 705.68,-226.53 822,-187.5 836.62,-182.59 851.8,-174.65 864.09,-167.38"/>
<polygon fill="#757575" stroke="#757575" points="866.17,-170.22 872.88,-162.01 862.52,-164.24 866.17,-170.22"/>
</g>
<!-- server.js -->
<g id="node7" class="node">
<title>server.js</title>
<path fill="none" stroke="#c6c5fe" d="M157.33,-142C157.33,-142 105.67,-142 105.67,-142 101.83,-142 98,-138.17 98,-134.33 98,-134.33 98,-126.67 98,-126.67 98,-122.83 101.83,-119 105.67,-119 105.67,-119 157.33,-119 157.33,-119 161.17,-119 165,-122.83 165,-126.67 165,-126.67 165,-134.33 165,-134.33 165,-138.17 161.17,-142 157.33,-142"/>
<text text-anchor="middle" x="131.5" y="-126.8" font-family="Arial" font-size="14.00" fill="#c6c5fe">server.js</text>
</g>
<!-- index.js&#45;&gt;server.js -->
<g id="edge6" class="edge">
<title>index.js&#45;&gt;server.js</title>
<path fill="none" stroke="#757575" d="M61.29,-157.9C70.83,-154.13 81.57,-149.87 91.7,-145.86"/>
<polygon fill="#757575" stroke="#757575" points="93.15,-149.05 101.16,-142.12 90.57,-142.55 93.15,-149.05"/>
</g>
<!-- server.js&#45;&gt;config.js -->
<g id="edge10" class="edge">
<title>server.js&#45;&gt;config.js</title>
<path fill="none" stroke="#757575" d="M164.15,-142.04C175.61,-145.73 188.74,-149.39 201,-151.5 406.19,-186.74 460.86,-167.05 669,-171.5 736.98,-172.95 754.76,-181.65 822,-171.5 831.24,-170.11 840.96,-167.7 850.06,-165.01"/>
<polygon fill="#757575" stroke="#757575" points="851.15,-168.33 859.65,-162 849.06,-161.65 851.15,-168.33"/>
</g>
<!-- routes/v1/transactionRoutes.js -->
<g id="node8" class="node">
<title>routes/v1/transactionRoutes.js</title>
<path fill="none" stroke="#c6c5fe" d="M405.33,-142C405.33,-142 222.67,-142 222.67,-142 218.83,-142 215,-138.17 215,-134.33 215,-134.33 215,-126.67 215,-126.67 215,-122.83 218.83,-119 222.67,-119 222.67,-119 405.33,-119 405.33,-119 409.17,-119 413,-122.83 413,-126.67 413,-126.67 413,-134.33 413,-134.33 413,-138.17 409.17,-142 405.33,-142"/>
<text text-anchor="middle" x="314" y="-126.8" font-family="Arial" font-size="14.00" fill="#c6c5fe">routes/v1/transactionRoutes.js</text>
</g>
<!-- server.js&#45;&gt;routes/v1/transactionRoutes.js -->
<g id="edge11" class="edge">
<title>server.js&#45;&gt;routes/v1/transactionRoutes.js</title>
<path fill="none" stroke="#757575" d="M165.19,-130.5C176.74,-130.5 190.46,-130.5 204.81,-130.5"/>
<polygon fill="#757575" stroke="#757575" points="204.82,-134 214.82,-130.5 204.82,-127 204.82,-134"/>
</g>
<!-- schemas/Transaction.js -->
<g id="node9" class="node">
<title>schemas/Transaction.js</title>
<path fill="none" stroke="#cfffac" d="M619.83,-101C619.83,-101 476.17,-101 476.17,-101 472.33,-101 468.5,-97.17 468.5,-93.33 468.5,-93.33 468.5,-85.67 468.5,-85.67 468.5,-81.83 472.33,-78 476.17,-78 476.17,-78 619.83,-78 619.83,-78 623.67,-78 627.5,-81.83 627.5,-85.67 627.5,-85.67 627.5,-93.33 627.5,-93.33 627.5,-97.17 623.67,-101 619.83,-101"/>
<text text-anchor="middle" x="548" y="-85.8" font-family="Arial" font-size="14.00" fill="#cfffac">schemas/Transaction.js</text>
</g>
<!-- server.js&#45;&gt;schemas/Transaction.js -->
<g id="edge12" class="edge">
<title>server.js&#45;&gt;schemas/Transaction.js</title>
<path fill="none" stroke="#757575" d="M164.51,-118.95C175.89,-115.31 188.88,-111.68 201,-109.5 287.51,-93.97 387.94,-89.65 458.24,-88.81"/>
<polygon fill="#757575" stroke="#757575" points="458.42,-92.31 468.39,-88.71 458.36,-85.31 458.42,-92.31"/>
</g>
<!-- schemas/TransactionCalculation.js -->
<g id="node10" class="node">
<title>schemas/TransactionCalculation.js</title>
<path fill="none" stroke="#cfffac" d="M419.33,-62C419.33,-62 208.67,-62 208.67,-62 204.83,-62 201,-58.17 201,-54.33 201,-54.33 201,-46.67 201,-46.67 201,-42.83 204.83,-39 208.67,-39 208.67,-39 419.33,-39 419.33,-39 423.17,-39 427,-42.83 427,-46.67 427,-46.67 427,-54.33 427,-54.33 427,-58.17 423.17,-62 419.33,-62"/>
<text text-anchor="middle" x="314" y="-46.8" font-family="Arial" font-size="14.00" fill="#cfffac">schemas/TransactionCalculation.js</text>
</g>
<!-- server.js&#45;&gt;schemas/TransactionCalculation.js -->
<g id="edge13" class="edge">
<title>server.js&#45;&gt;schemas/TransactionCalculation.js</title>
<path fill="none" stroke="#757575" d="M144.01,-118.76C156.8,-106.39 178.61,-87.25 201,-76.5 210.71,-71.83 221.31,-67.98 231.98,-64.8"/>
<polygon fill="#757575" stroke="#757575" points="233.09,-68.13 241.79,-62.07 231.21,-61.38 233.09,-68.13"/>
</g>
<!-- routes/v1/transactionRoutes.js&#45;&gt;handlers/v1/transaction.js -->
<g id="edge7" class="edge">
<title>routes/v1/transactionRoutes.js&#45;&gt;handlers/v1/transaction.js</title>
<path fill="none" stroke="#757575" d="M413.05,-130.5C426.13,-130.5 439.52,-130.5 452.53,-130.5"/>
<polygon fill="#757575" stroke="#757575" points="452.87,-134 462.87,-130.5 452.87,-127 452.87,-134"/>
</g>
<!-- routes/v1/transactionRoutes.js&#45;&gt;schemas/Transaction.js -->
<g id="edge8" class="edge">
<title>routes/v1/transactionRoutes.js&#45;&gt;schemas/Transaction.js</title>
<path fill="none" stroke="#757575" d="M380.24,-118.97C408.78,-113.93 442.42,-107.98 471.99,-102.76"/>
<polygon fill="#757575" stroke="#757575" points="472.61,-106.2 481.85,-101.01 471.39,-99.31 472.61,-106.2"/>
</g>
</g>
</svg>
